<svg width="548" height="1058" viewBox="0 0 548 1058" fill="none" xmlns="http://www.w3.org/2000/svg">
<path d="M60.6899 694.142C-39.2206 521.092 -24.1653 317.767 169.049 153.458C362.264 -10.8504 529.983 -10.0149 488.068 7.94883C446.152 25.9126 530.95 214.819 544.829 346.673C569.171 577.922 450.586 773.332 263.375 801.564C186.996 813.082 110.429 1001.39 53.9936 1056.28L35.9795 1037.87C85.8457 995.399 160.6 867.192 60.6899 694.142Z" fill="#01B26E"/>
<path d="M267.228 369.434C299.368 249.431 444.714 21.8932 462.803 9.20201C480.891 -3.48921 494.154 1.27546 494.532 2.85322C495.101 5.22679 486.811 7.40235 479.39 12.3757C471.97 17.3491 378.569 170.065 326.448 288.278C280.281 392.989 182.285 922.295 53.265 1057.16L37.2837 1038.84C117.842 960.882 154.018 792.133 267.228 369.434Z" fill="#00A968"/>
<path d="M279.657 306.31C283.516 293.267 282.036 279.226 275.543 267.274C269.049 255.323 258.074 246.441 245.031 242.582C231.989 238.722 217.948 240.202 205.996 246.696C194.045 253.19 185.163 264.165 181.303 277.207L230.48 291.758L279.657 306.31Z" fill="white"/>
<path d="M268.528 303.017C270.812 295.297 269.936 286.986 266.093 279.913C262.25 272.839 255.754 267.582 248.034 265.298C240.315 263.014 232.004 263.89 224.931 267.733C217.857 271.577 212.6 278.072 210.316 285.792L239.422 294.404L268.528 303.017Z" fill="#262626"/>
<path d="M417.353 347.053C421.212 334.01 419.732 319.969 413.238 308.017C406.745 296.066 395.77 287.184 382.727 283.325C369.684 279.465 355.643 280.945 343.692 287.439C331.74 293.933 322.858 304.908 318.999 317.951L368.176 332.502L417.353 347.053Z" fill="white"/>
<path d="M406.224 343.76C408.508 336.04 407.632 327.73 403.789 320.656C399.945 313.582 393.449 308.325 385.73 306.041C378.01 303.757 369.7 304.633 362.626 308.476C355.552 312.32 350.295 318.816 348.011 326.535L377.117 335.147L406.224 343.76Z" fill="#262626"/>
<path d="M233.971 346.274C226.027 343.923 217.522 348.476 216.763 356.726C215.386 371.702 218.443 386.873 225.729 400.282C235.421 418.12 251.803 431.378 271.27 437.138C290.737 442.898 311.695 440.689 329.534 430.997C342.943 423.712 353.763 412.647 360.757 399.332C364.609 391.998 359.951 383.55 352.007 381.2L292.989 363.737L233.971 346.274Z" fill="#262626"/>
<path d="M261.094 354.299C259.187 360.744 258.956 367.398 260.452 372.797C261.949 378.196 265.05 381.898 269.073 383.088C273.096 384.279 277.712 382.86 281.906 379.145C286.099 375.429 289.526 369.721 291.433 363.277L276.263 358.788L261.094 354.299Z" fill="white"/>
<path d="M291.433 363.277C289.526 369.721 289.295 376.375 290.792 381.774C292.288 387.173 295.389 390.875 299.412 392.065C303.436 393.256 308.052 391.837 312.245 388.122C316.438 384.407 319.865 378.699 321.772 372.254L306.603 367.765L291.433 363.277Z" fill="white"/>
</svg>
