<svg width="183" height="33" viewBox="0 0 183 33" fill="none" xmlns="http://www.w3.org/2000/svg">
<path d="M11.3533 2.48071C13.252 2.48071 14.5747 2.72605 15.3213 3.21671C16.068 3.70738 16.4413 4.42205 16.4413 5.36071C16.4413 6.34205 16.004 7.08871 15.1293 7.60071C14.2547 8.09138 12.8893 8.33671 11.0333 8.33671C10.244 8.33671 9.348 8.32605 8.34534 8.30471C7.364 8.26205 6.34 8.19805 5.27334 8.11271L5.62534 7.76071C5.83867 8.55005 5.91334 9.39271 5.84934 10.2887C5.80667 11.1634 5.636 12.006 5.33734 12.8167L5.04934 12.5927C5.58267 12.4647 6.23334 12.358 7.00134 12.2727C7.76934 12.166 8.55867 12.0807 9.36934 12.0167C10.18 11.9527 10.9267 11.9207 11.6093 11.9207C13.0813 11.9207 14.116 12.134 14.7133 12.5607C15.332 12.966 15.6413 13.4674 15.6413 14.0647C15.6413 14.726 15.2893 15.2914 14.5853 15.7607C13.9027 16.2087 12.7293 16.4327 11.0653 16.4327C10.0413 16.4327 8.996 16.39 7.92934 16.3047C6.86267 16.2194 5.81734 16.102 4.79334 15.9527L5.24134 15.5687C5.45467 16.102 5.604 16.7314 5.68934 17.4567C5.796 18.182 5.828 18.9074 5.78534 19.6327C5.764 20.358 5.64667 20.9874 5.43334 21.5207L5.24134 21.2967C5.88134 21.062 6.61734 20.87 7.44934 20.7207C8.28134 20.55 9.124 20.422 9.97734 20.3367C10.852 20.2514 11.6733 20.2087 12.4413 20.2087C13.764 20.2087 14.7453 20.39 15.3853 20.7527C16.0467 21.094 16.3773 21.6807 16.3773 22.5127C16.3773 23.0887 16.2173 23.59 15.8973 24.0167C15.5773 24.422 15.044 24.7847 14.2973 25.1047C13.764 25.318 13.1133 25.51 12.3453 25.6807C11.5773 25.8514 10.7667 25.9794 9.91334 26.0647C9.06 26.1714 8.20667 26.2247 7.35334 26.2247C5.86 26.2247 4.62267 26.0327 3.64134 25.6487C2.66 25.2647 1.956 24.6994 1.52934 23.9527C1.10267 23.1634 0.782669 22.1394 0.569336 20.8807C0.377336 19.622 0.281335 17.894 0.281335 15.6967C0.281335 13.6487 0.356002 11.9634 0.505336 10.6407C0.654669 9.29671 0.857336 8.20871 1.11334 7.37671C1.39067 6.52338 1.7 5.85138 2.04134 5.36071C2.596 4.63538 3.34267 4.07005 4.28134 3.66471C5.24134 3.23805 6.32934 2.93938 7.54534 2.76871C8.76134 2.57671 10.0307 2.48071 11.3533 2.48071ZM22.2723 6.12871C23.1043 6.12871 23.6803 6.40605 24.0003 6.96071C24.3203 7.51538 24.4803 8.33671 24.4803 9.42471C24.4803 9.68071 24.459 9.95805 24.4163 10.2567C24.395 10.534 24.3523 10.79 24.2883 11.0247L24.2243 10.3847C24.715 8.99805 25.483 7.92071 26.5283 7.15271C27.595 6.36338 28.7257 5.96871 29.9203 5.96871C31.2857 5.96871 32.427 6.35271 33.3443 7.12071C34.2617 7.88871 34.9443 8.96605 35.3923 10.3527C35.8617 11.7394 36.0963 13.382 36.0963 15.2807C36.0963 16.3687 36.043 17.4354 35.9363 18.4807C35.851 19.526 35.7337 20.486 35.5843 21.3607C35.435 22.214 35.2537 22.918 35.0403 23.4727C34.7417 24.2194 34.3363 24.7847 33.8243 25.1687C33.3337 25.5314 32.747 25.7127 32.0643 25.7127C31.339 25.7127 30.7843 25.4674 30.4003 24.9767C30.0163 24.4647 29.8243 23.7714 29.8243 22.8967C29.8243 22.214 29.867 21.3927 29.9523 20.4327C30.0377 19.4514 30.123 18.47 30.2083 17.4887C30.2937 16.486 30.3363 15.6114 30.3363 14.8647C30.3363 12.3687 29.5363 11.1207 27.9363 11.1207C27.083 11.1207 26.3577 11.5154 25.7603 12.3047C25.1843 13.0727 24.8003 14.1714 24.6083 15.6007C24.5443 16.1554 24.5017 16.8487 24.4803 17.6807C24.4803 18.4914 24.4697 19.302 24.4483 20.1127C24.4483 20.902 24.427 21.574 24.3843 22.1287C24.2777 23.5154 23.979 24.5074 23.4883 25.1047C22.9977 25.702 22.3363 26.0007 21.5043 26.0007C20.5017 26.0007 19.7443 25.638 19.2323 24.9127C18.7417 24.166 18.4963 22.918 18.4963 21.1687C18.4963 20.2727 18.5177 19.27 18.5603 18.1607C18.603 17.0514 18.6563 15.942 18.7203 14.8327C18.8057 13.702 18.9017 12.678 19.0083 11.7607C19.2217 10.0327 19.5737 8.66738 20.0643 7.66471C20.555 6.64071 21.291 6.12871 22.2723 6.12871ZM47.6058 6.00071C49.6538 6.00071 51.1258 6.33138 52.0218 6.99271C52.9392 7.63271 53.3978 8.46471 53.3978 9.48871C53.3978 10.1287 53.1845 10.6514 52.7578 11.0567C52.3525 11.4407 51.7658 11.6327 50.9978 11.6327C50.3365 11.6327 49.6325 11.5367 48.8858 11.3447C48.1392 11.1314 47.2858 11.0247 46.3258 11.0247C45.4938 11.0247 44.8645 11.1954 44.4378 11.5367C44.0112 11.8567 43.7978 12.262 43.7978 12.7527C43.7978 13.2434 43.9898 13.638 44.3738 13.9367C44.7792 14.214 45.5792 14.4167 46.7738 14.5447C48.3312 14.7154 49.6325 14.9927 50.6778 15.3767C51.7232 15.7394 52.5018 16.3047 53.0138 17.0727C53.5472 17.8194 53.8138 18.8647 53.8138 20.2087C53.8138 22.2567 53.0778 23.7607 51.6058 24.7207C50.1338 25.6807 48.0858 26.1607 45.4618 26.1607C43.7552 26.1607 42.3898 26.0114 41.3658 25.7127C40.3418 25.414 39.5952 24.9874 39.1258 24.4327C38.6778 23.878 38.4538 23.238 38.4538 22.5127C38.4538 21.83 38.6778 21.3074 39.1258 20.9447C39.5738 20.5607 40.1072 20.3687 40.7258 20.3687C41.2165 20.3687 41.7392 20.4327 42.2938 20.5607C42.8485 20.6674 43.4352 20.7954 44.0538 20.9447C44.6725 21.0727 45.3125 21.1367 45.9738 21.1367C47.5952 21.1367 48.4058 20.646 48.4058 19.6647C48.4058 19.3234 48.3205 19.046 48.1498 18.8327C47.9792 18.598 47.6592 18.406 47.1898 18.2567C46.7418 18.1074 46.0698 17.9794 45.1738 17.8727C43.8298 17.7447 42.6672 17.5207 41.6858 17.2007C40.7045 16.8594 39.9472 16.3367 39.4138 15.6327C38.8805 14.9074 38.6138 13.926 38.6138 12.6887C38.6138 10.6834 39.3925 9.07271 40.9498 7.85671C42.5072 6.61938 44.7258 6.00071 47.6058 6.00071ZM59.5751 1.48871C60.5991 1.48871 61.3351 1.75538 61.7831 2.28871C62.2311 2.82205 62.4551 3.43005 62.4551 4.11271C62.4551 4.96605 62.1778 5.62738 61.6231 6.09671C61.0684 6.56605 60.2898 6.80071 59.2871 6.80071C58.3058 6.80071 57.5698 6.54471 57.0791 6.03271C56.6098 5.52071 56.3751 4.91271 56.3751 4.20871C56.3751 3.31271 56.6631 2.64071 57.2391 2.19271C57.8364 1.72338 58.6151 1.48871 59.5751 1.48871ZM59.7991 8.62471C60.6311 8.62471 61.2818 9.26471 61.7511 10.5447C62.2204 11.8247 62.4551 13.862 62.4551 16.6567C62.4551 20.0914 62.1564 22.566 61.5591 24.0807C60.9831 25.5954 60.0978 26.3527 58.9031 26.3527C57.9858 26.3527 57.3031 25.798 56.8551 24.6887C56.4284 23.558 56.2151 21.5954 56.2151 18.8007C56.2151 15.366 56.5458 12.8167 57.2071 11.1527C57.8898 9.46738 58.7538 8.62471 59.7991 8.62471ZM67.9961 26.3527C67.4628 26.3527 67.0254 26.214 66.6841 25.9367C66.3641 25.6594 66.1294 25.254 65.9801 24.7207C65.8094 23.9954 65.6601 22.8967 65.5321 21.4247C65.4041 19.9314 65.3401 18.2994 65.3401 16.5287C65.3401 14.2887 65.4148 12.134 65.5641 10.0647C65.7348 7.99538 65.9481 6.29938 66.2041 4.97671C66.4814 3.54738 66.8761 2.50205 67.3881 1.84071C67.9001 1.15805 68.5508 0.816713 69.3401 0.816713C70.1081 0.816713 70.6948 1.13671 71.1001 1.77671C71.5054 2.39538 71.7081 3.47271 71.7081 5.00871C71.7081 6.16071 71.6654 7.40871 71.5801 8.75271C71.4948 10.0967 71.3454 11.526 71.1321 13.0407H71.2601C72.5401 11.2274 73.7348 9.79805 74.8441 8.75271C75.9748 7.68605 77.0094 6.92871 77.9481 6.48071C78.8868 6.03271 79.7188 5.80871 80.4441 5.80871C81.2761 5.80871 81.8948 6.06471 82.3001 6.57671C82.7054 7.06738 82.9081 7.68605 82.9081 8.43271C82.9081 9.62738 82.1188 10.8327 80.5401 12.0487C78.9828 13.2434 76.6361 14.4487 73.5001 15.6647L73.6281 15.1527C75.5481 16.07 77.1694 17.03 78.4921 18.0327C79.8361 19.014 80.8494 19.974 81.5321 20.9127C82.2361 21.8514 82.5881 22.7047 82.5881 23.4727C82.5881 24.2407 82.3534 24.8594 81.8841 25.3287C81.4148 25.7767 80.7534 26.0007 79.9001 26.0007C78.9828 26.0007 78.0334 25.7234 77.0521 25.1687C76.0708 24.5927 75.1001 23.7074 74.1401 22.5127C73.2014 21.318 72.2841 19.7714 71.3881 17.8727H71.2601C71.2388 19.046 71.1641 20.2087 71.0361 21.3607C70.9081 22.4914 70.7374 23.4194 70.5241 24.1447C70.3534 24.8274 70.0654 25.3714 69.6601 25.7767C69.2548 26.1607 68.7001 26.3527 67.9961 26.3527ZM88.7768 26.0967C87.9875 26.0967 87.3582 25.9367 86.8888 25.6167C86.4195 25.2754 86.0462 24.6994 85.7688 23.8887C85.4488 22.886 85.2035 21.574 85.0328 19.9527C84.8835 18.3314 84.8088 16.3474 84.8088 14.0007C84.8088 12.5714 84.8622 11.1314 84.9688 9.68071C85.0968 8.23005 85.2568 6.90738 85.4488 5.71271C85.6408 4.49671 85.8435 3.56871 86.0568 2.92871C86.3768 2.11805 86.7288 1.55271 87.1128 1.23271C87.4968 0.891381 87.9555 0.720715 88.4888 0.720715C89.0435 0.720715 89.5022 0.891381 89.8648 1.23271C90.2275 1.57405 90.5048 2.15005 90.6968 2.96071C90.8248 3.66471 90.9315 4.52871 91.0168 5.55271C91.1235 6.55538 91.1768 7.62205 91.1768 8.75271C91.1768 10.2034 91.1022 11.7287 90.9528 13.3287C90.8035 14.9287 90.6008 16.5074 90.3448 18.0647C90.1102 19.6007 89.8222 21.0087 89.4808 22.2887L87.7528 22.1287C88.3502 21.5314 89.0115 21.0727 89.7368 20.7527C90.4622 20.4114 91.1342 20.2407 91.7528 20.2407C92.4142 20.2407 92.9155 20.4114 93.2568 20.7527C93.6195 21.094 93.8008 21.606 93.8008 22.2887C93.8008 22.9287 93.5555 23.5474 93.0648 24.1447C92.5742 24.7207 91.9448 25.19 91.1768 25.5527C90.4302 25.9154 89.6302 26.0967 88.7768 26.0967ZM104.255 26.1287C102.463 26.1287 100.895 25.7554 99.5513 25.0087C98.2287 24.2407 97.2047 23.1527 96.4793 21.7447C95.754 20.3367 95.3913 18.662 95.3913 16.7207C95.3913 14.694 95.754 12.9234 96.4793 11.4087C97.226 9.89405 98.2713 8.71005 99.6153 7.85671C100.981 7.00338 102.559 6.57671 104.351 6.57671C106.271 6.57671 107.935 6.99271 109.343 7.82471C110.751 8.63538 111.839 9.77671 112.607 11.2487C113.397 12.7207 113.791 14.438 113.791 16.4007C113.791 18.406 113.397 20.134 112.607 21.5847C111.818 23.0354 110.709 24.1554 109.279 24.9447C107.871 25.734 106.197 26.1287 104.255 26.1287ZM104.703 20.9127C105.834 20.9127 106.73 20.4647 107.391 19.5687C108.053 18.6727 108.383 17.4887 108.383 16.0167C108.383 14.5234 108.053 13.3394 107.391 12.4647C106.73 11.5687 105.834 11.1207 104.703 11.1207C103.53 11.1207 102.602 11.5687 101.919 12.4647C101.258 13.3394 100.927 14.5234 100.927 16.0167C100.927 17.4887 101.258 18.6727 101.919 19.5687C102.602 20.4647 103.53 20.9127 104.703 20.9127ZM118.872 6.19271C119.576 6.19271 120.152 6.54471 120.6 7.24871C121.048 7.93138 121.368 9.00871 121.56 10.4807L120.888 10.9927C121.272 9.49938 121.987 8.35805 123.032 7.56871C124.077 6.77938 125.315 6.38471 126.744 6.38471C128.067 6.38471 129.24 6.72605 130.264 7.40871C131.309 8.09138 132.131 9.12605 132.728 10.5127C133.325 11.878 133.624 13.5954 133.624 15.6647C133.624 19.014 133.005 21.4887 131.768 23.0887C130.552 24.6674 128.909 25.4567 126.84 25.4567C125.368 25.4567 124.205 25.1367 123.352 24.4967C122.52 23.8567 121.933 23.078 121.592 22.1607L121.976 21.9687C122.147 23.206 122.285 24.4327 122.392 25.6487C122.52 26.8647 122.584 27.9314 122.584 28.8487C122.584 29.8727 122.371 30.726 121.944 31.4087C121.539 32.1127 120.867 32.4647 119.928 32.4647C119.053 32.4647 118.381 32.1554 117.912 31.5367C117.464 30.918 117.155 30.086 116.984 29.0407C116.856 28.1234 116.728 26.9607 116.6 25.5527C116.472 24.1234 116.365 22.5767 116.28 20.9127C116.216 19.2487 116.184 17.6274 116.184 16.0487C116.184 14.4487 116.237 12.9447 116.344 11.5367C116.472 10.1287 116.621 8.97671 116.792 8.08071C116.941 7.44071 117.187 6.97138 117.528 6.67271C117.891 6.35271 118.339 6.19271 118.872 6.19271ZM124.952 10.7367C123.949 10.7367 123.139 11.238 122.52 12.2407C121.923 13.2434 121.624 14.534 121.624 16.1127C121.624 17.7127 121.923 18.9074 122.52 19.6967C123.117 20.486 123.907 20.8807 124.888 20.8807C126.019 20.8807 126.829 20.4327 127.32 19.5367C127.832 18.6407 128.088 17.478 128.088 16.0487C128.088 14.214 127.779 12.87 127.16 12.0167C126.541 11.1634 125.805 10.7367 124.952 10.7367ZM145.596 26.2887C143.121 26.2887 141.148 25.9367 139.676 25.2327C138.225 24.5287 137.169 23.5154 136.508 22.1927C135.868 20.87 135.548 19.2914 135.548 17.4567C135.548 15.1314 135.996 13.158 136.892 11.5367C137.809 9.89405 139.057 8.63538 140.636 7.76071C142.236 6.88605 144.049 6.44871 146.076 6.44871C148.486 6.44871 150.246 6.97138 151.356 8.01671C152.465 9.04071 153.02 10.3954 153.02 12.0807C153.02 13.4247 152.657 14.5874 151.932 15.5687C151.228 16.55 150.246 17.3074 148.988 17.8407C147.729 18.3527 146.278 18.6087 144.636 18.6087C143.761 18.6087 142.918 18.5234 142.108 18.3527C141.318 18.1607 140.604 17.9047 139.964 17.5847L140.732 16.0167C140.668 16.5287 140.636 17.0407 140.636 17.5527C140.636 18.8327 141.052 19.75 141.884 20.3047C142.716 20.838 143.889 21.1047 145.404 21.1047C146.684 21.1047 147.729 20.9874 148.54 20.7527C149.35 20.4967 150.044 20.2514 150.62 20.0167C151.196 19.782 151.75 19.6647 152.284 19.6647C152.625 19.6647 152.945 19.7607 153.244 19.9527C153.564 20.1234 153.82 20.3794 154.012 20.7207C154.225 21.062 154.332 21.4887 154.332 22.0007C154.332 22.7687 154.001 23.4834 153.34 24.1447C152.678 24.7847 151.697 25.3074 150.396 25.7127C149.094 26.0967 147.494 26.2887 145.596 26.2887ZM143.74 15.5367C145.062 15.5367 146.15 15.2487 147.004 14.6727C147.857 14.0754 148.284 13.35 148.284 12.4967C148.284 11.878 148.06 11.366 147.612 10.9607C147.185 10.534 146.524 10.3207 145.628 10.3207C144.774 10.3207 143.985 10.4914 143.26 10.8327C142.556 11.1527 141.99 11.5794 141.564 12.1127C141.158 12.6247 140.956 13.19 140.956 13.8087C140.956 14.3634 141.201 14.79 141.692 15.0887C142.182 15.3874 142.865 15.5367 143.74 15.5367ZM162.451 26.4807C160.403 26.4807 158.793 25.702 157.619 24.1447C156.467 22.566 155.891 20.166 155.891 16.9447C155.891 13.7447 156.457 11.4087 157.587 9.93671C158.718 8.44338 160.339 7.69671 162.451 7.69671C163.689 7.69671 164.777 7.95271 165.715 8.46471C166.654 8.97671 167.497 9.70205 168.243 10.6407L167.859 10.7687C167.71 9.93671 167.55 9.05138 167.379 8.11271C167.209 7.17405 167.07 6.28871 166.963 5.45671C166.878 4.62471 166.835 3.96338 166.835 3.47271C166.835 2.61938 166.995 1.96871 167.315 1.52071C167.657 1.05138 168.179 0.816713 168.883 0.816713C169.758 0.816713 170.462 1.14738 170.995 1.80871C171.55 2.47005 171.987 3.47271 172.307 4.81671C172.563 5.86205 172.787 7.12071 172.979 8.59271C173.171 10.0647 173.321 11.6114 173.427 13.2327C173.555 14.8327 173.619 16.358 173.619 17.8087C173.619 20.0274 173.481 21.766 173.203 23.0247C172.947 24.262 172.574 25.126 172.083 25.6167C171.593 26.1074 171.017 26.3527 170.355 26.3527C169.566 26.3527 169.022 26.022 168.723 25.3607C168.446 24.6994 168.307 23.622 168.307 22.1287H168.851C168.275 23.4514 167.433 24.5074 166.323 25.2967C165.235 26.086 163.945 26.4807 162.451 26.4807ZM164.755 21.8087C165.395 21.8087 165.982 21.638 166.515 21.2967C167.049 20.9554 167.475 20.422 167.795 19.6967C168.115 18.95 168.275 18.022 168.275 16.9127C168.275 15.462 167.977 14.278 167.379 13.3607C166.782 12.4434 165.886 11.9847 164.691 11.9847C163.753 11.9847 162.985 12.39 162.387 13.2007C161.79 14.0114 161.491 15.238 161.491 16.8807C161.491 18.31 161.79 19.494 162.387 20.4327C162.985 21.35 163.774 21.8087 164.755 21.8087ZM179.856 1.48871C180.88 1.48871 181.616 1.75538 182.064 2.28871C182.512 2.82205 182.736 3.43005 182.736 4.11271C182.736 4.96605 182.459 5.62738 181.904 6.09671C181.35 6.56605 180.571 6.80071 179.568 6.80071C178.587 6.80071 177.851 6.54471 177.36 6.03271C176.891 5.52071 176.656 4.91271 176.656 4.20871C176.656 3.31271 176.944 2.64071 177.52 2.19271C178.118 1.72338 178.896 1.48871 179.856 1.48871ZM180.08 8.62471C180.912 8.62471 181.563 9.26471 182.032 10.5447C182.502 11.8247 182.736 13.862 182.736 16.6567C182.736 20.0914 182.438 22.566 181.84 24.0807C181.264 25.5954 180.379 26.3527 179.184 26.3527C178.267 26.3527 177.584 25.798 177.136 24.6887C176.71 23.558 176.496 21.5954 176.496 18.8007C176.496 15.366 176.827 12.8167 177.488 11.1527C178.171 9.46738 179.035 8.62471 180.08 8.62471Z" fill="white"/>
</svg>
