<svg width="349" height="168" viewBox="0 0 349 168" fill="none" xmlns="http://www.w3.org/2000/svg">
<path d="M50.6988 30.292C58.2935 30.292 63.5841 31.2733 66.5708 33.236C69.5575 35.1987 71.0508 38.0573 71.0508 41.812C71.0508 45.7373 69.3015 48.724 65.8028 50.772C62.3041 52.7347 56.8428 53.716 49.4188 53.716C46.2615 53.716 42.6775 53.6733 38.6668 53.588C34.7415 53.4173 30.6455 53.1613 26.3788 52.82L27.7868 51.412C28.6401 54.5693 28.9388 57.94 28.6828 61.524C28.5121 65.0227 27.8295 68.3933 26.6348 71.636L25.4828 70.74C27.6161 70.228 30.2188 69.8013 33.2908 69.46C36.3628 69.0333 39.5201 68.692 42.7628 68.436C46.0055 68.18 48.9921 68.052 51.7228 68.052C57.6108 68.052 61.7495 68.9053 64.1388 70.612C66.6135 72.2333 67.8508 74.2387 67.8508 76.628C67.8508 79.2733 66.4428 81.5347 63.6268 83.412C60.8961 85.204 56.2028 86.1 49.5468 86.1C45.4508 86.1 41.2695 85.9293 37.0028 85.588C32.7361 85.2467 28.5548 84.7773 24.4588 84.18L26.2508 82.644C27.1041 84.7773 27.7015 87.2947 28.0428 90.196C28.4695 93.0973 28.5975 95.9987 28.4268 98.9C28.3415 101.801 27.8721 104.319 27.0188 106.452L26.2508 105.556C28.8108 104.617 31.7548 103.849 35.0828 103.252C38.4108 102.569 41.7815 102.057 45.1948 101.716C48.6935 101.375 51.9788 101.204 55.0508 101.204C60.3415 101.204 64.2668 101.929 66.8268 103.38C69.4721 104.745 70.7948 107.092 70.7948 110.42C70.7948 112.724 70.1548 114.729 68.8748 116.436C67.5948 118.057 65.4615 119.508 62.4748 120.788C60.3415 121.641 57.7388 122.409 54.6668 123.092C51.5948 123.775 48.3521 124.287 44.9388 124.628C41.5255 125.055 38.1121 125.268 34.6988 125.268C28.7255 125.268 23.7761 124.5 19.8508 122.964C15.9255 121.428 13.1095 119.167 11.4028 116.18C9.69614 113.023 8.41614 108.927 7.5628 103.892C6.7948 98.8573 6.4108 91.9453 6.4108 83.156C6.4108 74.964 6.70947 68.2227 7.3068 62.932C7.90414 57.556 8.7148 53.204 9.7388 49.876C10.8481 46.4627 12.0855 43.7747 13.4508 41.812C15.6695 38.9107 18.6561 36.6493 22.4108 35.028C26.2508 33.3213 30.6028 32.1267 35.4668 31.444C40.3308 30.676 45.4081 30.292 50.6988 30.292ZM116.135 35.028C126.716 35.028 134.524 37.5027 139.559 42.452C144.593 47.4013 147.111 53.9293 147.111 62.036C147.111 67.8387 145.788 72.8733 143.143 77.14C140.583 81.4067 137.084 84.7347 132.647 87.124C128.209 89.428 123.175 90.58 117.543 90.58C115.153 90.58 112.551 90.324 109.735 89.812C106.919 89.3 104.188 88.3613 101.543 86.996L102.951 85.844C103.633 87.636 104.188 89.8973 104.615 92.628C105.127 95.2733 105.511 98.004 105.767 100.82C106.108 103.636 106.279 106.239 106.279 108.628C106.279 114.089 105.169 118.271 102.951 121.172C100.817 123.988 97.6601 125.396 93.4788 125.396C89.9801 125.396 87.2068 124.457 85.1588 122.58C83.1961 120.703 81.8308 117.631 81.0628 113.364C80.2948 109.097 79.9108 103.423 79.9108 96.34C79.9108 85.332 80.5508 76.0307 81.8308 68.436C83.1108 60.756 84.9455 54.6547 87.3348 50.132C89.8948 45.6093 93.5215 41.9827 98.2148 39.252C102.993 36.436 108.967 35.028 116.135 35.028ZM114.727 76.5C119.591 76.5 123.601 75.2627 126.759 72.788C130.001 70.228 131.623 66.644 131.623 62.036C131.623 58.5373 130.513 55.5933 128.295 53.204C126.161 50.8147 122.705 49.62 117.927 49.62C114.513 49.62 111.527 50.26 108.967 51.54C106.407 52.82 104.444 54.5693 103.079 56.788C101.799 59.0067 101.159 61.5667 101.159 64.468C101.159 68.052 102.268 70.9533 104.487 73.172C106.705 75.3907 110.119 76.5 114.727 76.5ZM170.375 119.124C167.644 119.124 165.383 118.1 163.591 116.052C161.799 113.919 160.391 110.335 159.367 105.3C158.684 101.801 158.044 97.7053 157.447 93.012C156.935 88.3187 156.551 83.6253 156.295 78.932C156.039 74.1533 155.911 69.972 155.911 66.388C155.911 57.2573 156.337 50.2173 157.191 45.268C158.129 40.2333 159.537 36.7347 161.415 34.772C163.292 32.724 165.681 31.7 168.583 31.7C171.313 31.7 173.489 32.8093 175.111 35.028C176.817 37.1613 178.225 40.7027 179.335 45.652C179.932 48.2973 180.487 51.4547 180.999 55.124C181.511 58.708 181.937 62.42 182.279 66.26C182.62 70.1 182.876 73.812 183.047 77.396C183.303 80.98 183.431 84.052 183.431 86.612C183.431 93.8653 183.047 99.924 182.279 104.788C181.596 109.567 180.316 113.151 178.439 115.54C176.561 117.929 173.873 119.124 170.375 119.124ZM239.806 125.908C229.651 125.908 221.203 124.116 214.462 120.532C207.72 116.863 202.686 111.743 199.358 105.172C196.03 98.6013 194.366 90.9213 194.366 82.132C194.366 72.404 196.243 63.9133 199.998 56.66C203.752 49.3213 209.128 43.6467 216.126 39.636C223.208 35.6253 231.742 33.62 241.726 33.62C251.027 33.62 258.323 35.3693 263.614 38.868C268.99 42.2813 271.678 46.804 271.678 52.436C271.678 56.1053 270.568 59.0493 268.35 61.268C266.131 63.4013 262.974 64.468 258.878 64.468C256.318 64.468 253.971 64.0413 251.838 63.188C249.704 62.3347 247.486 61.524 245.182 60.756C242.878 59.9027 240.19 59.476 237.118 59.476C233.534 59.476 230.248 60.116 227.262 61.396C224.275 62.5907 221.886 64.6813 220.094 67.668C218.302 70.6547 217.406 74.708 217.406 79.828C217.406 87.3373 219.155 92.6707 222.654 95.828C226.238 98.9 230.974 100.436 236.862 100.436C239.166 100.436 241.64 100.265 244.286 99.924C246.931 99.4973 249.448 99.1133 251.838 98.772C254.312 98.3453 256.36 98.132 257.982 98.132C261.48 98.132 264.296 99.0707 266.43 100.948C268.563 102.74 269.63 105.471 269.63 109.14C269.63 114.175 267.112 118.228 262.078 121.3C257.128 124.372 249.704 125.908 239.806 125.908ZM306.407 122.324C303.249 122.324 299.921 122.025 296.423 121.428C292.924 120.745 289.596 119.721 286.439 118.356C283.367 116.991 280.849 115.199 278.887 112.98C276.924 110.761 275.943 108.031 275.943 104.788C275.943 101.46 276.839 98.9853 278.631 97.364C280.423 95.6573 283.324 94.804 287.335 94.804C289.639 94.804 292.028 95.188 294.503 95.956C296.977 96.724 299.537 97.5347 302.183 98.388C304.913 99.156 307.687 99.54 310.503 99.54C313.745 99.54 316.135 98.9427 317.671 97.748C319.292 96.5533 320.103 94.932 320.103 92.884C320.103 91.5187 319.633 90.324 318.695 89.3C317.841 88.1907 316.305 87.124 314.087 86.1C311.953 85.076 308.881 84.0947 304.871 83.156C299.324 81.7907 294.887 80.212 291.559 78.42C288.316 76.5427 285.969 74.2387 284.519 71.508C283.153 68.7773 282.471 65.492 282.471 61.652C282.471 56.1907 283.665 51.6253 286.055 47.956C288.529 44.2867 291.644 41.3427 295.399 39.124C299.239 36.9053 303.335 35.3267 307.687 34.388C312.039 33.364 316.177 32.852 320.103 32.852C327.441 32.852 333.372 34.2173 337.895 36.948C342.503 39.6787 344.807 43.3907 344.807 48.084C344.807 51.0707 343.783 53.5453 341.735 55.508C339.687 57.3853 336.529 58.324 332.263 58.324C330.471 58.324 328.337 58.068 325.863 57.556C323.473 56.9587 320.956 56.404 318.311 55.892C315.665 55.2947 313.063 54.996 310.503 54.996C307.26 54.996 304.743 55.5507 302.951 56.66C301.244 57.7693 300.391 59.476 300.391 61.78C300.391 63.828 301.415 65.7053 303.463 67.412C305.511 69.1187 309.393 70.7827 315.111 72.404C321.596 74.196 326.673 76.244 330.343 78.548C334.097 80.852 336.743 83.4547 338.279 86.356C339.9 89.172 340.711 92.4147 340.711 96.084C340.711 101.289 339.26 105.855 336.359 109.78C333.457 113.705 329.447 116.777 324.327 118.996C319.207 121.215 313.233 122.324 306.407 122.324Z" fill="white"/>
<path d="M34.1983 161.74C33.8143 161.74 33.4943 161.636 33.2383 161.428C32.9983 161.204 32.8143 160.86 32.6863 160.396C32.5743 159.9 32.4703 159.108 32.3743 158.02C32.2783 156.916 32.2303 155.7 32.2303 154.372C32.2303 152.932 32.2703 151.532 32.3503 150.172C32.4303 148.812 32.5583 147.612 32.7343 146.572C32.8783 145.788 33.1023 145.212 33.4063 144.844C33.7263 144.46 34.1743 144.268 34.7503 144.268C35.1663 144.268 35.5263 144.38 35.8303 144.604C36.1343 144.828 36.3583 145.212 36.5023 145.756C36.6623 146.284 36.7423 147.02 36.7423 147.964C36.7423 148.332 36.7263 148.74 36.6943 149.188C36.6783 149.636 36.6463 150.132 36.5983 150.676H36.6943C37.7503 148.98 38.7103 147.644 39.5743 146.668C40.4543 145.676 41.2543 144.972 41.9743 144.556C42.6943 144.14 43.3503 143.932 43.9423 143.932C44.5023 143.932 44.9343 144.124 45.2383 144.508C45.5423 144.876 45.6943 145.34 45.6943 145.9C45.6943 146.844 45.1103 147.876 43.9423 148.996C42.7903 150.116 40.9183 151.412 38.3263 152.884L38.5183 152.356C40.7583 153.796 42.4303 155.1 43.5343 156.268C44.6543 157.436 45.2143 158.54 45.2143 159.58C45.2143 160.156 45.0303 160.62 44.6623 160.972C44.3103 161.308 43.8063 161.476 43.1503 161.476C42.4623 161.476 41.7663 161.26 41.0623 160.828C40.3583 160.38 39.6303 159.636 38.8783 158.596C38.1423 157.556 37.3503 156.156 36.5023 154.396H36.4063C36.4383 154.7 36.4543 155.012 36.4543 155.332C36.4703 155.652 36.4783 155.964 36.4783 156.268C36.4783 158.236 36.3103 159.644 35.9743 160.492C35.6543 161.324 35.0623 161.74 34.1983 161.74ZM54.3332 161.692C52.4772 161.692 50.9972 161.428 49.8932 160.9C48.8052 160.372 48.0132 159.612 47.5172 158.62C47.0372 157.628 46.7972 156.444 46.7972 155.068C46.7972 153.324 47.1332 151.844 47.8052 150.628C48.4932 149.396 49.4292 148.452 50.6132 147.796C51.8132 147.14 53.1732 146.812 54.6932 146.812C56.5012 146.812 57.8212 147.204 58.6532 147.988C59.4852 148.756 59.9012 149.772 59.9012 151.036C59.9012 152.044 59.6292 152.916 59.0852 153.652C58.5572 154.388 57.8212 154.956 56.8772 155.356C55.9332 155.74 54.8452 155.932 53.6132 155.932C52.9572 155.932 52.3252 155.868 51.7172 155.74C51.1252 155.596 50.5892 155.404 50.1092 155.164L50.6852 153.988C50.6372 154.372 50.6132 154.756 50.6132 155.14C50.6132 156.1 50.9252 156.788 51.5492 157.204C52.1732 157.604 53.0532 157.804 54.1892 157.804C55.1492 157.804 55.9332 157.716 56.5412 157.54C57.1492 157.348 57.6692 157.164 58.1012 156.988C58.5332 156.812 58.9492 156.724 59.3492 156.724C59.6052 156.724 59.8452 156.796 60.0692 156.94C60.3092 157.068 60.5012 157.26 60.6452 157.516C60.8052 157.772 60.8852 158.092 60.8852 158.476C60.8852 159.052 60.6372 159.588 60.1412 160.084C59.6452 160.564 58.9092 160.956 57.9332 161.26C56.9572 161.548 55.7572 161.692 54.3332 161.692ZM52.9412 153.628C53.9332 153.628 54.7492 153.412 55.3892 152.98C56.0292 152.532 56.3492 151.988 56.3492 151.348C56.3492 150.884 56.1812 150.5 55.8452 150.196C55.5252 149.876 55.0292 149.716 54.3572 149.716C53.7172 149.716 53.1252 149.844 52.5812 150.1C52.0532 150.34 51.6292 150.66 51.3092 151.06C51.0052 151.444 50.8532 151.868 50.8532 152.332C50.8532 152.748 51.0372 153.068 51.4052 153.292C51.7732 153.516 52.2852 153.628 52.9412 153.628ZM64.551 161.74C64.119 161.74 63.759 161.612 63.471 161.356C63.199 161.1 62.999 160.716 62.871 160.204C62.743 159.564 62.631 158.724 62.535 157.684C62.455 156.644 62.415 155.532 62.415 154.348C62.415 153.692 62.423 152.948 62.439 152.116C62.471 151.268 62.511 150.412 62.559 149.548C62.623 148.684 62.687 147.884 62.751 147.148C62.831 146.396 62.903 145.788 62.967 145.324C63.111 144.524 63.343 143.9 63.663 143.452C63.999 142.988 64.495 142.756 65.151 142.756C65.839 142.756 66.343 142.996 66.663 143.476C66.983 143.956 67.143 144.548 67.143 145.252C67.143 145.956 67.087 146.788 66.975 147.748C66.879 148.708 66.727 149.684 66.519 150.676L66.135 150.964C66.311 150.292 66.591 149.676 66.975 149.116C67.359 148.556 67.847 148.116 68.439 147.796C69.031 147.46 69.727 147.292 70.527 147.292C72.079 147.292 73.311 147.852 74.223 148.972C75.151 150.076 75.615 151.804 75.615 154.156C75.615 155.804 75.367 157.18 74.871 158.284C74.375 159.388 73.703 160.22 72.855 160.78C72.007 161.324 71.039 161.596 69.951 161.596C68.943 161.596 68.079 161.3 67.359 160.708C66.655 160.116 66.199 159.26 65.991 158.14L66.399 158.404C66.287 159.556 66.071 160.404 65.751 160.948C65.447 161.476 65.047 161.74 64.551 161.74ZM68.991 158.308C69.679 158.308 70.279 157.996 70.791 157.372C71.303 156.732 71.559 155.732 71.559 154.372C71.559 153.252 71.359 152.348 70.959 151.66C70.559 150.956 69.887 150.604 68.943 150.604C68.175 150.604 67.551 150.916 67.071 151.54C66.607 152.148 66.375 153.084 66.375 154.348C66.375 155.5 66.607 156.452 67.071 157.204C67.551 157.94 68.191 158.308 68.991 158.308ZM88.647 161.356C88.135 161.356 87.735 161.212 87.447 160.924C87.175 160.62 86.991 160.236 86.895 159.772C86.799 159.292 86.751 158.788 86.751 158.26L86.871 158.164C86.679 158.852 86.343 159.444 85.863 159.94C85.399 160.436 84.855 160.82 84.231 161.092C83.623 161.348 83.015 161.476 82.407 161.476C81.543 161.476 80.775 161.284 80.103 160.9C79.447 160.5 78.927 159.876 78.543 159.028C78.191 158.228 77.911 157.188 77.703 155.908C77.511 154.628 77.415 153.308 77.415 151.948C77.415 151.26 77.439 150.628 77.487 150.052C77.551 149.46 77.647 148.972 77.775 148.588C77.935 148.092 78.183 147.732 78.519 147.508C78.855 147.268 79.271 147.148 79.767 147.148C80.343 147.148 80.799 147.356 81.135 147.772C81.471 148.172 81.671 148.74 81.735 149.476C81.799 149.988 81.839 150.604 81.855 151.324C81.887 152.028 81.919 152.732 81.951 153.436C81.983 154.14 82.015 154.732 82.047 155.212C82.143 156.028 82.351 156.628 82.671 157.012C83.007 157.396 83.423 157.588 83.919 157.588C84.623 157.588 85.159 157.308 85.527 156.748C85.895 156.172 86.079 155.38 86.079 154.372C86.079 153.86 86.047 153.276 85.983 152.62C85.935 151.964 85.879 151.324 85.815 150.7C85.767 150.076 85.743 149.564 85.743 149.164C85.743 148.284 85.903 147.652 86.223 147.268C86.543 146.884 86.991 146.692 87.567 146.692C88.047 146.692 88.455 146.812 88.791 147.052C89.143 147.276 89.407 147.596 89.583 148.012C89.807 148.492 89.999 149.14 90.159 149.956C90.319 150.772 90.447 151.7 90.543 152.74C90.639 153.764 90.687 154.852 90.687 156.004C90.687 157.796 90.535 159.14 90.231 160.036C89.943 160.916 89.415 161.356 88.647 161.356ZM95.6455 146.572C96.2695 146.572 96.7015 146.78 96.9415 147.196C97.1815 147.612 97.3015 148.228 97.3015 149.044C97.3015 149.236 97.2855 149.444 97.2535 149.668C97.2375 149.876 97.2055 150.068 97.1575 150.244L97.1095 149.764C97.4775 148.724 98.0535 147.916 98.8375 147.34C99.6375 146.748 100.485 146.452 101.381 146.452C102.405 146.452 103.261 146.74 103.949 147.316C104.637 147.892 105.149 148.7 105.485 149.74C105.837 150.78 106.013 152.012 106.013 153.436C106.013 154.252 105.973 155.052 105.893 155.836C105.829 156.62 105.741 157.34 105.629 157.996C105.517 158.636 105.381 159.164 105.221 159.58C104.997 160.14 104.693 160.564 104.309 160.852C103.941 161.124 103.501 161.26 102.989 161.26C102.445 161.26 102.029 161.076 101.741 160.708C101.453 160.324 101.309 159.804 101.309 159.148C101.309 158.636 101.341 158.02 101.405 157.3C101.469 156.564 101.533 155.828 101.597 155.092C101.661 154.34 101.693 153.684 101.693 153.124C101.693 151.252 101.093 150.316 99.8935 150.316C99.2535 150.316 98.7095 150.612 98.2615 151.204C97.8295 151.78 97.5415 152.604 97.3975 153.676C97.3495 154.092 97.3175 154.612 97.3015 155.236C97.3015 155.844 97.2935 156.452 97.2775 157.06C97.2775 157.652 97.2615 158.156 97.2295 158.572C97.1495 159.612 96.9255 160.356 96.5575 160.804C96.1895 161.252 95.6935 161.476 95.0695 161.476C94.3175 161.476 93.7495 161.204 93.3655 160.66C92.9975 160.1 92.8135 159.164 92.8135 157.852C92.8135 157.18 92.8295 156.428 92.8615 155.596C92.8935 154.764 92.9335 153.932 92.9815 153.1C93.0455 152.252 93.1175 151.484 93.1975 150.796C93.3575 149.5 93.6215 148.476 93.9895 147.724C94.3575 146.956 94.9095 146.572 95.6455 146.572ZM115.562 161.668C114.906 161.668 114.394 161.492 114.026 161.14C113.674 160.772 113.426 160.18 113.282 159.364C113.138 158.548 113.066 157.452 113.066 156.076C113.066 153.836 113.202 151.908 113.474 150.292C113.762 148.676 114.226 147.412 114.866 146.5C115.538 145.508 116.41 144.804 117.482 144.388C118.57 143.972 119.746 143.764 121.01 143.764C123.074 143.764 124.594 144.236 125.57 145.18C126.546 146.108 127.034 147.332 127.034 148.852C127.034 150.036 126.73 151.02 126.122 151.804C125.53 152.588 124.722 153.156 123.698 153.508C122.674 153.86 121.522 153.996 120.242 153.916V154.012C122.626 154.94 124.33 155.868 125.354 156.796C126.394 157.708 126.914 158.564 126.914 159.364C126.914 159.972 126.706 160.46 126.29 160.828C125.89 161.196 125.338 161.38 124.634 161.38C123.93 161.38 123.21 161.172 122.474 160.756C121.754 160.324 120.986 159.612 120.17 158.62C119.354 157.612 118.458 156.236 117.482 154.492H117.386C117.466 154.828 117.53 155.236 117.578 155.716C117.642 156.196 117.69 156.692 117.722 157.204C117.77 157.716 117.794 158.196 117.794 158.644C117.794 159.62 117.626 160.372 117.29 160.9C116.954 161.412 116.378 161.668 115.562 161.668ZM119.978 151.372C120.538 151.372 121.042 151.276 121.49 151.084C121.954 150.892 122.322 150.628 122.594 150.292C122.866 149.94 123.002 149.532 123.002 149.068C123.002 148.396 122.786 147.852 122.354 147.436C121.938 147.02 121.29 146.812 120.41 146.812C119.818 146.812 119.314 146.932 118.898 147.172C118.482 147.412 118.162 147.732 117.938 148.132C117.714 148.516 117.602 148.932 117.602 149.38C117.602 149.956 117.802 150.436 118.202 150.82C118.602 151.188 119.194 151.372 119.978 151.372ZM139.616 161.74C138.912 161.74 138.44 161.532 138.2 161.116C137.96 160.684 137.84 160.004 137.84 159.076L138.128 159.196C137.248 160.94 135.568 161.812 133.088 161.812C131.968 161.812 131.032 161.612 130.28 161.212C129.544 160.812 128.992 160.284 128.624 159.628C128.272 158.956 128.096 158.22 128.096 157.42C128.096 156.06 128.576 154.988 129.536 154.204C130.512 153.404 131.8 153.004 133.4 153.004C134.424 153.004 135.312 153.156 136.064 153.46C136.832 153.764 137.488 154.188 138.032 154.732L137.48 154.684C137.4 153.212 137.088 152.164 136.544 151.54C136.016 150.916 135.256 150.604 134.264 150.604C133.736 150.604 133.224 150.684 132.728 150.844C132.232 151.004 131.76 151.172 131.312 151.348C130.864 151.508 130.432 151.588 130.016 151.588C129.52 151.588 129.136 151.444 128.864 151.156C128.592 150.868 128.456 150.492 128.456 150.028C128.456 149.388 128.744 148.804 129.32 148.276C129.912 147.732 130.688 147.3 131.648 146.98C132.608 146.644 133.648 146.476 134.768 146.476C136.176 146.476 137.384 146.78 138.392 147.388C139.416 147.996 140.16 148.9 140.624 150.1C141.024 151.076 141.304 152.164 141.464 153.364C141.64 154.564 141.728 155.844 141.728 157.204C141.728 158.404 141.656 159.332 141.512 159.988C141.368 160.644 141.136 161.1 140.816 161.356C140.512 161.612 140.112 161.74 139.616 161.74ZM134.552 158.716C135 158.716 135.448 158.652 135.896 158.524C136.36 158.396 136.744 158.204 137.048 157.948C137.368 157.676 137.528 157.348 137.528 156.964C137.528 156.612 137.392 156.332 137.12 156.124C136.864 155.9 136.528 155.732 136.112 155.62C135.696 155.508 135.248 155.452 134.768 155.452C133.936 155.452 133.296 155.604 132.848 155.908C132.4 156.212 132.176 156.612 132.176 157.108C132.176 157.62 132.384 158.02 132.8 158.308C133.216 158.58 133.8 158.716 134.552 158.716ZM146.248 166.276C145.224 166.276 144.712 165.7 144.712 164.548C144.712 164.02 144.88 163.396 145.216 162.676C145.552 161.972 146.032 161.236 146.656 160.468C147.296 159.684 148.048 158.924 148.912 158.188L148.888 158.452C146.872 156.58 145.344 154.9 144.304 153.412C143.28 151.908 142.768 150.532 142.768 149.284C142.768 148.548 142.96 147.972 143.344 147.556C143.728 147.14 144.24 146.932 144.88 146.932C145.984 146.932 147.008 147.652 147.952 149.092C148.912 150.532 149.752 152.7 150.472 155.596H150.568C151.048 152.54 151.656 150.292 152.392 148.852C153.128 147.396 154.008 146.668 155.032 146.668C155.576 146.668 155.984 146.852 156.256 147.22C156.544 147.572 156.688 148.076 156.688 148.732C156.688 149.228 156.592 149.852 156.4 150.604C156.208 151.34 155.936 152.172 155.584 153.1C155.248 154.012 154.848 154.964 154.384 155.956C153.92 156.948 153.408 157.932 152.848 158.908C151.424 161.468 150.192 163.332 149.152 164.5C148.112 165.684 147.144 166.276 146.248 166.276ZM169.124 161.74C168.42 161.74 167.948 161.532 167.708 161.116C167.468 160.684 167.348 160.004 167.348 159.076L167.636 159.196C166.756 160.94 165.076 161.812 162.596 161.812C161.476 161.812 160.54 161.612 159.788 161.212C159.052 160.812 158.5 160.284 158.132 159.628C157.78 158.956 157.604 158.22 157.604 157.42C157.604 156.06 158.084 154.988 159.044 154.204C160.02 153.404 161.308 153.004 162.908 153.004C163.932 153.004 164.82 153.156 165.572 153.46C166.34 153.764 166.996 154.188 167.54 154.732L166.988 154.684C166.908 153.212 166.596 152.164 166.052 151.54C165.524 150.916 164.764 150.604 163.772 150.604C163.244 150.604 162.732 150.684 162.236 150.844C161.74 151.004 161.268 151.172 160.82 151.348C160.372 151.508 159.94 151.588 159.524 151.588C159.028 151.588 158.644 151.444 158.372 151.156C158.1 150.868 157.964 150.492 157.964 150.028C157.964 149.388 158.252 148.804 158.828 148.276C159.42 147.732 160.196 147.3 161.156 146.98C162.116 146.644 163.156 146.476 164.276 146.476C165.684 146.476 166.892 146.78 167.9 147.388C168.924 147.996 169.668 148.9 170.132 150.1C170.532 151.076 170.812 152.164 170.972 153.364C171.148 154.564 171.236 155.844 171.236 157.204C171.236 158.404 171.164 159.332 171.02 159.988C170.876 160.644 170.644 161.1 170.324 161.356C170.02 161.612 169.62 161.74 169.124 161.74ZM164.06 158.716C164.508 158.716 164.956 158.652 165.404 158.524C165.868 158.396 166.252 158.204 166.556 157.948C166.876 157.676 167.036 157.348 167.036 156.964C167.036 156.612 166.9 156.332 166.628 156.124C166.372 155.9 166.036 155.732 165.62 155.62C165.204 155.508 164.756 155.452 164.276 155.452C163.444 155.452 162.804 155.604 162.356 155.908C161.908 156.212 161.684 156.612 161.684 157.108C161.684 157.62 161.892 158.02 162.308 158.308C162.724 158.58 163.308 158.716 164.06 158.716ZM183.189 161.62C182.085 161.62 181.181 161.436 180.477 161.068C179.773 160.684 179.261 160.092 178.941 159.292C178.717 158.748 178.549 158.092 178.437 157.324C178.341 156.556 178.293 155.668 178.293 154.66C178.293 153.028 178.349 151.66 178.461 150.556C178.573 149.436 178.741 148.516 178.965 147.796C179.205 147.06 179.477 146.46 179.781 145.996C180.213 145.308 180.917 144.764 181.893 144.364C182.869 143.964 184.253 143.764 186.045 143.764C187.325 143.764 188.349 143.932 189.117 144.268C189.885 144.604 190.445 145.052 190.797 145.612C191.149 146.172 191.325 146.804 191.325 147.508C191.325 148.58 190.997 149.46 190.341 150.148C189.685 150.836 188.829 151.38 187.773 151.78V151.876C188.925 152.004 189.821 152.38 190.461 153.004C191.117 153.612 191.445 154.484 191.445 155.62C191.445 156.5 191.205 157.308 190.725 158.044C190.261 158.764 189.629 159.396 188.829 159.94C188.045 160.468 187.165 160.884 186.189 161.188C185.213 161.476 184.213 161.62 183.189 161.62ZM184.269 158.188C184.925 158.188 185.509 158.084 186.021 157.876C186.533 157.652 186.933 157.364 187.221 157.012C187.509 156.644 187.653 156.22 187.653 155.74C187.653 155.212 187.405 154.772 186.909 154.42C186.413 154.052 185.645 153.868 184.605 153.868C183.869 153.868 183.269 154.052 182.805 154.42C182.357 154.772 182.133 155.34 182.133 156.124C182.133 156.86 182.309 157.388 182.661 157.708C183.013 158.028 183.549 158.188 184.269 158.188ZM184.341 150.892C185.269 150.892 186.037 150.692 186.645 150.292C187.269 149.876 187.581 149.332 187.581 148.66C187.581 148.164 187.365 147.764 186.933 147.46C186.517 147.156 185.909 147.004 185.109 147.004C184.293 147.004 183.621 147.172 183.093 147.508C182.565 147.844 182.301 148.388 182.301 149.14C182.301 149.764 182.485 150.212 182.853 150.484C183.221 150.756 183.717 150.892 184.341 150.892ZM204.303 161.74C203.599 161.74 203.127 161.532 202.887 161.116C202.647 160.684 202.527 160.004 202.527 159.076L202.815 159.196C201.935 160.94 200.255 161.812 197.775 161.812C196.655 161.812 195.719 161.612 194.967 161.212C194.231 160.812 193.679 160.284 193.311 159.628C192.959 158.956 192.783 158.22 192.783 157.42C192.783 156.06 193.263 154.988 194.223 154.204C195.199 153.404 196.487 153.004 198.087 153.004C199.111 153.004 199.999 153.156 200.751 153.46C201.519 153.764 202.175 154.188 202.719 154.732L202.167 154.684C202.087 153.212 201.775 152.164 201.231 151.54C200.703 150.916 199.943 150.604 198.951 150.604C198.423 150.604 197.911 150.684 197.415 150.844C196.919 151.004 196.447 151.172 195.999 151.348C195.551 151.508 195.119 151.588 194.703 151.588C194.207 151.588 193.823 151.444 193.551 151.156C193.279 150.868 193.143 150.492 193.143 150.028C193.143 149.388 193.431 148.804 194.007 148.276C194.599 147.732 195.375 147.3 196.335 146.98C197.295 146.644 198.335 146.476 199.455 146.476C200.863 146.476 202.071 146.78 203.079 147.388C204.103 147.996 204.847 148.9 205.311 150.1C205.711 151.076 205.991 152.164 206.151 153.364C206.327 154.564 206.415 155.844 206.415 157.204C206.415 158.404 206.343 159.332 206.199 159.988C206.055 160.644 205.823 161.1 205.503 161.356C205.199 161.612 204.799 161.74 204.303 161.74ZM199.239 158.716C199.687 158.716 200.135 158.652 200.583 158.524C201.047 158.396 201.431 158.204 201.735 157.948C202.055 157.676 202.215 157.348 202.215 156.964C202.215 156.612 202.079 156.332 201.807 156.124C201.551 155.9 201.215 155.732 200.799 155.62C200.383 155.508 199.935 155.452 199.455 155.452C198.623 155.452 197.983 155.604 197.535 155.908C197.087 156.212 196.863 156.612 196.863 157.108C196.863 157.62 197.071 158.02 197.487 158.308C197.903 158.58 198.487 158.716 199.239 158.716ZM211.524 161.548C210.932 161.548 210.46 161.428 210.108 161.188C209.756 160.932 209.476 160.5 209.268 159.892C209.028 159.14 208.844 158.156 208.716 156.94C208.604 155.724 208.548 154.236 208.548 152.476C208.548 151.404 208.588 150.324 208.668 149.236C208.764 148.148 208.884 147.156 209.028 146.26C209.172 145.348 209.324 144.652 209.484 144.172C209.724 143.564 209.988 143.14 210.276 142.9C210.564 142.644 210.908 142.516 211.308 142.516C211.724 142.516 212.068 142.644 212.34 142.9C212.612 143.156 212.82 143.588 212.964 144.196C213.06 144.724 213.14 145.372 213.204 146.14C213.284 146.892 213.324 147.692 213.324 148.54C213.324 149.628 213.268 150.772 213.156 151.972C213.044 153.172 212.892 154.356 212.7 155.524C212.524 156.676 212.308 157.732 212.052 158.692L210.756 158.572C211.204 158.124 211.7 157.78 212.244 157.54C212.788 157.284 213.292 157.156 213.756 157.156C214.252 157.156 214.628 157.284 214.884 157.54C215.156 157.796 215.292 158.18 215.292 158.692C215.292 159.172 215.108 159.636 214.74 160.084C214.372 160.516 213.9 160.868 213.324 161.14C212.764 161.412 212.164 161.548 211.524 161.548ZM219.365 143.092C220.133 143.092 220.685 143.292 221.021 143.692C221.357 144.092 221.525 144.548 221.525 145.06C221.525 145.7 221.317 146.196 220.901 146.548C220.485 146.9 219.901 147.076 219.149 147.076C218.413 147.076 217.861 146.884 217.493 146.5C217.141 146.116 216.965 145.66 216.965 145.132C216.965 144.46 217.181 143.956 217.613 143.62C218.061 143.268 218.645 143.092 219.365 143.092ZM219.533 148.444C220.157 148.444 220.645 148.924 220.997 149.884C221.349 150.844 221.525 152.372 221.525 154.468C221.525 157.044 221.301 158.9 220.853 160.036C220.421 161.172 219.757 161.74 218.861 161.74C218.173 161.74 217.661 161.324 217.325 160.492C217.005 159.644 216.845 158.172 216.845 156.076C216.845 153.5 217.093 151.588 217.589 150.34C218.101 149.076 218.749 148.444 219.533 148.444ZM225.68 161.74C225.28 161.74 224.952 161.636 224.696 161.428C224.456 161.22 224.28 160.916 224.168 160.516C224.04 159.972 223.928 159.148 223.832 158.044C223.736 156.924 223.688 155.7 223.688 154.372C223.688 152.692 223.744 151.076 223.856 149.524C223.984 147.972 224.144 146.7 224.336 145.708C224.544 144.636 224.84 143.852 225.224 143.356C225.608 142.844 226.096 142.588 226.688 142.588C227.264 142.588 227.704 142.828 228.008 143.308C228.312 143.772 228.464 144.58 228.464 145.732C228.464 146.596 228.432 147.532 228.368 148.54C228.304 149.548 228.192 150.62 228.032 151.756H228.128C229.088 150.396 229.984 149.324 230.816 148.54C231.664 147.74 232.44 147.172 233.144 146.836C233.848 146.5 234.472 146.332 235.016 146.332C235.64 146.332 236.104 146.524 236.408 146.908C236.712 147.276 236.864 147.74 236.864 148.3C236.864 149.196 236.272 150.1 235.088 151.012C233.92 151.908 232.16 152.812 229.808 153.724L229.904 153.34C231.344 154.028 232.56 154.748 233.552 155.5C234.56 156.236 235.32 156.956 235.832 157.66C236.36 158.364 236.624 159.004 236.624 159.58C236.624 160.156 236.448 160.62 236.096 160.972C235.744 161.308 235.248 161.476 234.608 161.476C233.92 161.476 233.208 161.268 232.472 160.852C231.736 160.42 231.008 159.756 230.288 158.86C229.584 157.964 228.896 156.804 228.224 155.38H228.128C228.112 156.26 228.056 157.132 227.96 157.996C227.864 158.844 227.736 159.54 227.576 160.084C227.448 160.596 227.232 161.004 226.928 161.308C226.624 161.596 226.208 161.74 225.68 161.74ZM250.247 144.244C252.231 144.244 253.695 144.732 254.639 145.708C255.583 146.684 256.055 147.964 256.055 149.548C256.055 150.636 255.799 151.58 255.287 152.38C254.791 153.18 254.111 153.804 253.247 154.252C252.383 154.684 251.407 154.9 250.319 154.9C249.871 154.9 249.383 154.852 248.855 154.756C248.343 154.66 247.815 154.484 247.271 154.228L247.439 153.772C247.567 154.156 247.671 154.628 247.751 155.188C247.847 155.748 247.919 156.324 247.967 156.916C248.031 157.492 248.063 158.028 248.063 158.524C248.063 159.548 247.855 160.332 247.439 160.876C247.039 161.404 246.447 161.668 245.663 161.668C245.023 161.668 244.519 161.492 244.151 161.14C243.799 160.788 243.551 160.212 243.407 159.412C243.279 158.612 243.215 157.548 243.215 156.22C243.215 153.996 243.327 152.1 243.551 150.532C243.775 148.948 244.143 147.7 244.655 146.788C245.087 146.004 245.775 145.388 246.719 144.94C247.663 144.476 248.839 144.244 250.247 144.244ZM249.695 151.828C250.591 151.828 251.319 151.596 251.879 151.132C252.455 150.652 252.743 149.98 252.743 149.116C252.743 148.556 252.559 148.092 252.191 147.724C251.823 147.356 251.231 147.172 250.415 147.172C249.823 147.172 249.295 147.308 248.831 147.58C248.383 147.836 248.039 148.188 247.799 148.636C247.559 149.084 247.439 149.588 247.439 150.148C247.439 150.708 247.623 151.132 247.991 151.42C248.359 151.692 248.927 151.828 249.695 151.828ZM268.475 161.74C267.771 161.74 267.299 161.532 267.059 161.116C266.819 160.684 266.699 160.004 266.699 159.076L266.987 159.196C266.107 160.94 264.427 161.812 261.947 161.812C260.827 161.812 259.891 161.612 259.139 161.212C258.403 160.812 257.851 160.284 257.483 159.628C257.131 158.956 256.955 158.22 256.955 157.42C256.955 156.06 257.435 154.988 258.395 154.204C259.371 153.404 260.659 153.004 262.259 153.004C263.283 153.004 264.171 153.156 264.923 153.46C265.691 153.764 266.347 154.188 266.891 154.732L266.339 154.684C266.259 153.212 265.947 152.164 265.403 151.54C264.875 150.916 264.115 150.604 263.123 150.604C262.595 150.604 262.083 150.684 261.587 150.844C261.091 151.004 260.619 151.172 260.171 151.348C259.723 151.508 259.291 151.588 258.875 151.588C258.379 151.588 257.995 151.444 257.723 151.156C257.451 150.868 257.315 150.492 257.315 150.028C257.315 149.388 257.603 148.804 258.179 148.276C258.771 147.732 259.547 147.3 260.507 146.98C261.467 146.644 262.507 146.476 263.627 146.476C265.035 146.476 266.243 146.78 267.251 147.388C268.275 147.996 269.019 148.9 269.483 150.1C269.883 151.076 270.163 152.164 270.323 153.364C270.499 154.564 270.587 155.844 270.587 157.204C270.587 158.404 270.515 159.332 270.371 159.988C270.227 160.644 269.995 161.1 269.675 161.356C269.371 161.612 268.971 161.74 268.475 161.74ZM263.411 158.716C263.859 158.716 264.307 158.652 264.755 158.524C265.219 158.396 265.603 158.204 265.907 157.948C266.227 157.676 266.387 157.348 266.387 156.964C266.387 156.612 266.251 156.332 265.979 156.124C265.723 155.9 265.387 155.732 264.971 155.62C264.555 155.508 264.107 155.452 263.627 155.452C262.795 155.452 262.155 155.604 261.707 155.908C261.259 156.212 261.035 156.612 261.035 157.108C261.035 157.62 261.243 158.02 261.659 158.308C262.075 158.58 262.659 158.716 263.411 158.716ZM274.736 146.62C275.264 146.62 275.696 146.884 276.032 147.412C276.368 147.924 276.608 148.732 276.752 149.836L276.248 150.22C276.536 149.1 277.072 148.244 277.856 147.652C278.64 147.06 279.568 146.764 280.64 146.764C281.632 146.764 282.512 147.02 283.28 147.532C284.064 148.044 284.68 148.82 285.128 149.86C285.576 150.884 285.8 152.172 285.8 153.724C285.8 156.236 285.336 158.092 284.408 159.292C283.496 160.476 282.264 161.068 280.712 161.068C279.608 161.068 278.736 160.828 278.096 160.348C277.472 159.868 277.032 159.284 276.776 158.596L277.064 158.452C277.192 159.38 277.296 160.3 277.376 161.212C277.472 162.124 277.52 162.924 277.52 163.612C277.52 164.38 277.36 165.02 277.04 165.532C276.736 166.06 276.232 166.324 275.528 166.324C274.872 166.324 274.368 166.092 274.016 165.628C273.68 165.164 273.448 164.54 273.32 163.756C273.224 163.068 273.128 162.196 273.032 161.14C272.936 160.068 272.856 158.908 272.792 157.66C272.744 156.412 272.72 155.196 272.72 154.012C272.72 152.812 272.76 151.684 272.84 150.628C272.936 149.572 273.048 148.708 273.176 148.036C273.288 147.556 273.472 147.204 273.728 146.98C274 146.74 274.336 146.62 274.736 146.62ZM279.296 150.028C278.544 150.028 277.936 150.404 277.472 151.156C277.024 151.908 276.8 152.876 276.8 154.06C276.8 155.26 277.024 156.156 277.472 156.748C277.92 157.34 278.512 157.636 279.248 157.636C280.096 157.636 280.704 157.3 281.072 156.628C281.456 155.956 281.648 155.084 281.648 154.012C281.648 152.636 281.416 151.628 280.952 150.988C280.488 150.348 279.936 150.028 279.296 150.028ZM298.499 161.74C297.795 161.74 297.323 161.532 297.083 161.116C296.843 160.684 296.723 160.004 296.723 159.076L297.011 159.196C296.131 160.94 294.451 161.812 291.971 161.812C290.851 161.812 289.915 161.612 289.163 161.212C288.427 160.812 287.875 160.284 287.507 159.628C287.155 158.956 286.979 158.22 286.979 157.42C286.979 156.06 287.459 154.988 288.419 154.204C289.395 153.404 290.683 153.004 292.283 153.004C293.307 153.004 294.195 153.156 294.947 153.46C295.715 153.764 296.371 154.188 296.915 154.732L296.363 154.684C296.283 153.212 295.971 152.164 295.427 151.54C294.899 150.916 294.139 150.604 293.147 150.604C292.619 150.604 292.107 150.684 291.611 150.844C291.115 151.004 290.643 151.172 290.195 151.348C289.747 151.508 289.315 151.588 288.899 151.588C288.403 151.588 288.019 151.444 287.747 151.156C287.475 150.868 287.339 150.492 287.339 150.028C287.339 149.388 287.627 148.804 288.203 148.276C288.795 147.732 289.571 147.3 290.531 146.98C291.491 146.644 292.531 146.476 293.651 146.476C295.059 146.476 296.267 146.78 297.275 147.388C298.299 147.996 299.043 148.9 299.507 150.1C299.907 151.076 300.187 152.164 300.347 153.364C300.523 154.564 300.611 155.844 300.611 157.204C300.611 158.404 300.539 159.332 300.395 159.988C300.251 160.644 300.019 161.1 299.699 161.356C299.395 161.612 298.995 161.74 298.499 161.74ZM293.435 158.716C293.883 158.716 294.331 158.652 294.779 158.524C295.243 158.396 295.627 158.204 295.931 157.948C296.251 157.676 296.411 157.348 296.411 156.964C296.411 156.612 296.275 156.332 296.003 156.124C295.747 155.9 295.411 155.732 294.995 155.62C294.579 155.508 294.131 155.452 293.651 155.452C292.819 155.452 292.179 155.604 291.731 155.908C291.283 156.212 291.059 156.612 291.059 157.108C291.059 157.62 291.267 158.02 291.683 158.308C292.099 158.58 292.683 158.716 293.435 158.716ZM305.575 146.572C306.199 146.572 306.631 146.78 306.871 147.196C307.111 147.612 307.231 148.228 307.231 149.044C307.231 149.236 307.215 149.444 307.183 149.668C307.167 149.876 307.135 150.068 307.087 150.244L307.039 149.764C307.407 148.724 307.983 147.916 308.767 147.34C309.567 146.748 310.415 146.452 311.311 146.452C312.335 146.452 313.191 146.74 313.879 147.316C314.567 147.892 315.079 148.7 315.415 149.74C315.767 150.78 315.943 152.012 315.943 153.436C315.943 154.252 315.903 155.052 315.823 155.836C315.759 156.62 315.671 157.34 315.559 157.996C315.447 158.636 315.311 159.164 315.151 159.58C314.927 160.14 314.623 160.564 314.239 160.852C313.871 161.124 313.431 161.26 312.919 161.26C312.375 161.26 311.959 161.076 311.671 160.708C311.383 160.324 311.239 159.804 311.239 159.148C311.239 158.636 311.271 158.02 311.335 157.3C311.399 156.564 311.463 155.828 311.527 155.092C311.591 154.34 311.623 153.684 311.623 153.124C311.623 151.252 311.023 150.316 309.823 150.316C309.183 150.316 308.639 150.612 308.191 151.204C307.759 151.78 307.471 152.604 307.327 153.676C307.279 154.092 307.247 154.612 307.231 155.236C307.231 155.844 307.223 156.452 307.207 157.06C307.207 157.652 307.191 158.156 307.159 158.572C307.079 159.612 306.855 160.356 306.487 160.804C306.119 161.252 305.623 161.476 304.999 161.476C304.247 161.476 303.679 161.204 303.295 160.66C302.927 160.1 302.743 159.164 302.743 157.852C302.743 157.18 302.759 156.428 302.791 155.596C302.823 154.764 302.863 153.932 302.911 153.1C302.975 152.252 303.047 151.484 303.127 150.796C303.287 149.5 303.551 148.476 303.919 147.724C304.287 146.956 304.839 146.572 305.575 146.572Z" fill="#262626"/>
</svg>
