<svg width="85" height="25" viewBox="0 0 85 25" fill="none" xmlns="http://www.w3.org/2000/svg">
<path d="M11.236 0.480835C13.1347 0.480835 14.4574 0.726168 15.204 1.21684C15.9507 1.7075 16.324 2.42217 16.324 3.36084C16.324 4.34217 15.8867 5.08884 15.012 5.60084C14.1374 6.0915 12.772 6.33684 10.916 6.33684C10.1267 6.33684 9.23071 6.32617 8.22804 6.30484C7.24671 6.26217 6.22271 6.19817 5.15604 6.11284L5.50804 5.76084C5.72137 6.55017 5.79604 7.39284 5.73204 8.28884C5.68937 9.1635 5.51871 10.0062 5.22004 10.8168L4.93204 10.5928C5.46537 10.4648 6.11604 10.3582 6.88404 10.2728C7.65204 10.1662 8.44137 10.0808 9.25204 10.0168C10.0627 9.95284 10.8094 9.92084 11.492 9.92084C12.964 9.92084 13.9987 10.1342 14.596 10.5608C15.2147 10.9662 15.524 11.4675 15.524 12.0648C15.524 12.7262 15.172 13.2915 14.468 13.7608C13.7854 14.2088 12.612 14.4328 10.948 14.4328C9.92404 14.4328 8.87871 14.3902 7.81204 14.3048C6.74537 14.2195 5.70004 14.1022 4.67604 13.9528L5.12404 13.5688C5.33737 14.1022 5.48671 14.7315 5.57204 15.4568C5.67871 16.1822 5.71071 16.9075 5.66804 17.6328C5.64671 18.3582 5.52937 18.9875 5.31604 19.5208L5.12404 19.2968C5.76404 19.0622 6.50004 18.8702 7.33204 18.7208C8.16404 18.5502 9.00671 18.4222 9.86004 18.3368C10.7347 18.2515 11.556 18.2088 12.324 18.2088C13.6467 18.2088 14.628 18.3902 15.268 18.7528C15.9294 19.0942 16.26 19.6808 16.26 20.5128C16.26 21.0888 16.1 21.5902 15.78 22.0168C15.46 22.4222 14.9267 22.7848 14.18 23.1048C13.6467 23.3182 12.996 23.5102 12.228 23.6808C11.46 23.8515 10.6494 23.9795 9.79604 24.0648C8.94271 24.1715 8.08938 24.2248 7.23604 24.2248C5.74271 24.2248 4.50537 24.0328 3.52404 23.6488C2.54271 23.2648 1.83871 22.6995 1.41204 21.9528C0.985375 21.1635 0.665375 20.1395 0.452041 18.8808C0.260041 17.6222 0.164041 15.8942 0.164041 13.6968C0.164041 11.6488 0.238708 9.9635 0.388041 8.64084C0.537375 7.29684 0.740041 6.20884 0.996041 5.37684C1.27337 4.5235 1.58271 3.8515 1.92404 3.36084C2.47871 2.6355 3.22537 2.07017 4.16404 1.66483C5.12404 1.23817 6.21204 0.939502 7.42804 0.768835C8.64404 0.576835 9.91338 0.480835 11.236 0.480835ZM27.595 1.66483C30.2404 1.66483 32.1924 2.2835 33.451 3.52084C34.7097 4.75817 35.339 6.39017 35.339 8.41684C35.339 9.8675 35.0084 11.1262 34.347 12.1928C33.707 13.2595 32.8324 14.0915 31.723 14.6888C30.6137 15.2648 29.355 15.5528 27.947 15.5528C27.3497 15.5528 26.699 15.4888 25.995 15.3608C25.291 15.2328 24.6084 14.9982 23.947 14.6568L24.299 14.3688C24.4697 14.8168 24.6084 15.3822 24.715 16.0648C24.843 16.7262 24.939 17.4088 25.003 18.1128C25.0884 18.8168 25.131 19.4675 25.131 20.0648C25.131 21.4302 24.8537 22.4755 24.299 23.2008C23.7657 23.9048 22.9764 24.2568 21.931 24.2568C21.0564 24.2568 20.363 24.0222 19.851 23.5528C19.3604 23.0835 19.019 22.3155 18.827 21.2488C18.635 20.1822 18.539 18.7635 18.539 16.9928C18.539 14.2408 18.699 11.9155 19.019 10.0168C19.339 8.09684 19.7977 6.5715 20.395 5.44084C21.035 4.31017 21.9417 3.4035 23.115 2.72084C24.3097 2.01684 25.803 1.66483 27.595 1.66483ZM27.243 12.0328C28.459 12.0328 29.4617 11.7235 30.251 11.1048C31.0617 10.4648 31.467 9.56884 31.467 8.41684C31.467 7.54217 31.1897 6.80617 30.635 6.20884C30.1017 5.6115 29.2377 5.31284 28.043 5.31284C27.1897 5.31284 26.443 5.47284 25.803 5.79284C25.163 6.11284 24.6724 6.55017 24.331 7.10484C24.011 7.6595 23.851 8.2995 23.851 9.02484C23.851 9.92084 24.1284 10.6462 24.683 11.2008C25.2377 11.7555 26.091 12.0328 27.243 12.0328ZM41.155 22.6888C40.4724 22.6888 39.907 22.4328 39.459 21.9208C39.011 21.3875 38.659 20.4915 38.403 19.2328C38.2324 18.3582 38.0724 17.3342 37.923 16.1608C37.795 14.9875 37.699 13.8142 37.635 12.6408C37.571 11.4462 37.539 10.4008 37.539 9.50484C37.539 7.22217 37.6457 5.46217 37.859 4.22484C38.0937 2.96617 38.4457 2.0915 38.915 1.60084C39.3844 1.08884 39.9817 0.832836 40.707 0.832836C41.3897 0.832836 41.9337 1.11017 42.339 1.66483C42.7657 2.19817 43.1177 3.0835 43.395 4.32084C43.5444 4.98217 43.683 5.7715 43.811 6.68884C43.939 7.58484 44.0457 8.51284 44.131 9.47284C44.2164 10.4328 44.2804 11.3608 44.323 12.2568C44.387 13.1528 44.419 13.9208 44.419 14.5608C44.419 16.3742 44.323 17.8888 44.131 19.1048C43.9604 20.2995 43.6404 21.1955 43.171 21.7928C42.7017 22.3902 42.0297 22.6888 41.155 22.6888ZM58.5128 24.3848C55.9741 24.3848 53.8621 23.9368 52.1768 23.0408C50.4915 22.1235 49.2328 20.8435 48.4008 19.2008C47.5688 17.5582 47.1528 15.6382 47.1528 13.4408C47.1528 11.0088 47.6221 8.88617 48.5608 7.07284C49.4995 5.23817 50.8435 3.8195 52.5928 2.81684C54.3635 1.81417 56.4968 1.31284 58.9928 1.31284C61.3181 1.31284 63.1421 1.75017 64.4648 2.62484C65.8088 3.47817 66.4808 4.60884 66.4808 6.01684C66.4808 6.93417 66.2035 7.67017 65.6488 8.22484C65.0941 8.75817 64.3048 9.02484 63.2808 9.02484C62.6408 9.02484 62.0541 8.91817 61.5208 8.70484C60.9875 8.4915 60.4328 8.28884 59.8568 8.09684C59.2808 7.8835 58.6088 7.77684 57.8408 7.77684C56.9448 7.77684 56.1235 7.93684 55.3768 8.25684C54.6301 8.5555 54.0328 9.07817 53.5848 9.82484C53.1368 10.5715 52.9128 11.5848 52.9128 12.8648C52.9128 14.7422 53.3501 16.0755 54.2248 16.8648C55.1208 17.6328 56.3048 18.0168 57.7768 18.0168C58.3528 18.0168 58.9715 17.9742 59.6328 17.8888C60.2941 17.7822 60.9235 17.6862 61.5208 17.6008C62.1395 17.4942 62.6515 17.4408 63.0568 17.4408C63.9315 17.4408 64.6355 17.6755 65.1688 18.1448C65.7021 18.5928 65.9688 19.2755 65.9688 20.1928C65.9688 21.4515 65.3395 22.4648 64.0808 23.2328C62.8435 24.0008 60.9875 24.3848 58.5128 24.3848ZM75.163 23.4888C74.3737 23.4888 73.5417 23.4142 72.667 23.2648C71.7924 23.0942 70.9604 22.8382 70.171 22.4968C69.403 22.1555 68.7737 21.7075 68.283 21.1528C67.7924 20.5982 67.547 19.9155 67.547 19.1048C67.547 18.2728 67.771 17.6542 68.219 17.2488C68.667 16.8222 69.3924 16.6088 70.395 16.6088C70.971 16.6088 71.5684 16.7048 72.187 16.8968C72.8057 17.0888 73.4457 17.2915 74.107 17.5048C74.7897 17.6968 75.483 17.7928 76.187 17.7928C76.9977 17.7928 77.595 17.6435 77.979 17.3448C78.3844 17.0462 78.587 16.6408 78.587 16.1288C78.587 15.7875 78.4697 15.4888 78.235 15.2328C78.0217 14.9555 77.6377 14.6888 77.083 14.4328C76.5497 14.1768 75.7817 13.9315 74.779 13.6968C73.3924 13.3555 72.283 12.9608 71.451 12.5128C70.6404 12.0435 70.0537 11.4675 69.691 10.7848C69.3497 10.1022 69.179 9.28084 69.179 8.32084C69.179 6.9555 69.4777 5.81417 70.075 4.89684C70.6937 3.9795 71.4724 3.2435 72.411 2.68884C73.371 2.13417 74.395 1.7395 75.483 1.50484C76.571 1.24884 77.6057 1.12084 78.587 1.12084C80.4217 1.12084 81.9044 1.46217 83.035 2.14484C84.187 2.8275 84.763 3.7555 84.763 4.92884C84.763 5.6755 84.507 6.29417 83.995 6.78484C83.483 7.25417 82.6937 7.48884 81.627 7.48884C81.179 7.48884 80.6457 7.42484 80.027 7.29684C79.4297 7.1475 78.8004 7.00884 78.139 6.88084C77.4777 6.7315 76.827 6.65684 76.187 6.65684C75.3764 6.65684 74.747 6.7955 74.299 7.07284C73.8724 7.35017 73.659 7.77684 73.659 8.35284C73.659 8.86484 73.915 9.33417 74.427 9.76084C74.939 10.1875 75.9097 10.6035 77.339 11.0088C78.9604 11.4568 80.2297 11.9688 81.147 12.5448C82.0857 13.1208 82.747 13.7715 83.131 14.4968C83.5364 15.2008 83.739 16.0115 83.739 16.9288C83.739 18.2302 83.3764 19.3715 82.651 20.3528C81.9257 21.3342 80.923 22.1022 79.643 22.6568C78.363 23.2115 76.8697 23.4888 75.163 23.4888Z" fill="#1D3DA0"/>
</svg>
