<svg width="238" height="233" viewBox="0 0 238 233" fill="none" xmlns="http://www.w3.org/2000/svg">
<path d="M42.2287 16.8484C79.7652 14.3877 94.876 39.2325 97.5407 46.6869C100.205 54.1413 97.0973 65.0901 88.2927 67.0493C79.488 69.0086 78.2078 66.1658 78.4747 63.9582C78.5973 62.9445 78.6182 59.956 78.6381 57.9056C78.2461 61.5238 76.7375 68.0997 75.6677 69.0046C74.0458 70.3765 63.5543 75.2323 57.9256 71.3037C55.2988 69.4704 58.6856 55.4606 57.2086 58.7546C55.7317 62.0486 56.2573 69.941 48.8182 69.2206C39.5194 68.3201 32.8408 62.0169 29.3901 58.4987C27.4957 56.5673 25.9862 51.3591 23.4071 51.9867C20.8279 52.6144 12.8598 55.9045 11.3336 55.6151C9.91751 55.3466 9.24942 53.3688 9.04366 52.7387C7.68348 41.4243 12.422 18.8024 42.2287 16.8484Z" fill="#01B26E"/>
<path d="M9.07512 52.9901C9.0643 52.9069 9.05381 52.8231 9.04366 52.7387M9.04366 52.7387C7.68348 41.4243 12.422 18.8024 42.2287 16.8484C79.7652 14.3877 94.876 39.2325 97.5407 46.6869C100.205 54.1413 97.0973 65.0901 88.2927 67.0493C79.488 69.0086 78.2078 66.1658 78.4747 63.9582C78.6883 62.192 78.5933 54.4317 78.7217 56.0811C78.9077 58.4694 76.9651 67.9072 75.6677 69.0046C74.0458 70.3765 63.5543 75.2323 57.9256 71.3037C55.2988 69.4704 58.6856 55.4606 57.2086 58.7546C55.7317 62.0486 56.2573 69.941 48.8182 69.2206C39.5194 68.3201 32.8408 62.0169 29.3901 58.4987C27.4957 56.5673 25.9862 51.3591 23.4071 51.9867C20.8279 52.6144 12.8598 55.9045 11.3336 55.6151C9.91751 55.3466 9.24942 53.3687 9.04366 52.7387Z" stroke="#00A968" stroke-width="8" stroke-linecap="round"/>
<path d="M230.287 183.438C216.728 148.35 187.832 145.094 179.948 145.812C172.065 146.531 163.439 153.957 165.366 162.768C167.293 171.58 170.41 171.546 172.301 170.375C173.169 169.837 175.871 168.561 177.723 167.68C174.605 169.558 169.274 173.693 168.904 175.044C168.341 177.093 168.35 188.654 174.282 192.107C177.05 193.719 188.335 184.753 185.968 187.478C183.601 190.204 176.22 193.047 180.003 199.493C184.732 207.55 193.26 210.957 197.903 212.608C200.452 213.514 205.812 212.692 206.328 215.296C206.844 217.9 207.211 226.513 208.116 227.776C208.955 228.947 211.03 228.721 211.688 228.643C222.525 225.117 241.054 211.301 230.287 183.438Z" fill="#01B26E"/>
<path d="M211.447 228.72C211.527 228.695 211.608 228.669 211.688 228.643M211.688 228.643C222.525 225.117 241.054 211.301 230.287 183.438C216.728 148.35 187.832 145.094 179.948 145.812C172.065 146.531 163.439 153.957 165.366 162.768C167.293 171.58 170.41 171.546 172.301 170.375C173.813 169.438 180.893 166.26 179.343 166.837C177.098 167.673 169.353 173.406 168.904 175.044C168.341 177.093 168.35 188.654 174.282 192.107C177.05 193.719 188.335 184.753 185.968 187.478C183.601 190.204 176.22 193.047 180.003 199.493C184.732 207.55 193.26 210.957 197.903 212.608C200.452 213.514 205.812 212.692 206.328 215.296C206.844 217.9 207.211 226.513 208.116 227.776C208.955 228.947 211.03 228.721 211.688 228.643Z" stroke="#00A968" stroke-width="8" stroke-linecap="round"/>
</svg>
